<svg width="248" height="295" viewBox="0 0 248 295" fill="none" xmlns="http://www.w3.org/2000/svg">
<g filter="url(#filter0_d_0_1)">
<path d="M0 228V0H240V228L120 287L0 228Z" fill="#2A348D"/>
</g>
<path d="M121.632 107.362C121.119 107.124 120.561 107 119.996 107C119.431 107 118.873 107.124 118.361 107.362L60.236 134.487C59.5516 134.806 58.9754 135.319 58.5784 135.962C58.1814 136.604 57.9809 137.349 58.0014 138.104C58.022 138.859 58.2628 139.592 58.6943 140.212C59.1257 140.832 59.7289 141.312 60.4298 141.594L118.555 164.844C119.48 165.214 120.513 165.214 121.438 164.844L166.496 146.833V192.248C164.441 192.248 162.47 193.064 161.016 194.518C159.563 195.971 158.746 197.942 158.746 199.998V215.498H181.996V199.998C181.996 197.942 181.18 195.971 179.726 194.518C178.273 193.064 176.302 192.248 174.246 192.248V143.725L179.563 141.594C180.264 141.312 180.867 140.832 181.298 140.212C181.73 139.592 181.971 138.859 181.991 138.104C182.012 137.349 181.811 136.604 181.414 135.962C181.017 135.319 180.441 134.806 179.757 134.487L121.632 107.362ZM119.996 157.063L71.6208 137.726L119.996 115.151L168.372 137.726L119.996 157.063Z" fill="#F8F8F8"/>
<path d="M90.3603 161.496C89.8613 161.308 89.3289 161.225 88.7964 161.252C88.2639 161.279 87.7427 161.416 87.2655 161.654C86.7883 161.892 86.3653 162.226 86.0231 162.634C85.6808 163.043 85.4266 163.518 85.2763 164.03L81.4013 177.205C81.1299 178.13 81.2129 179.123 81.6342 179.99C82.0555 180.857 82.7849 181.536 83.6798 181.894L118.555 195.844C119.48 196.214 120.513 196.214 121.438 195.844L156.313 181.894C157.208 181.536 157.937 180.857 158.358 179.99C158.78 179.123 158.863 178.13 158.591 177.205L154.716 164.03C154.566 163.518 154.312 163.043 153.97 162.634C153.627 162.226 153.204 161.892 152.727 161.654C152.25 161.416 151.729 161.279 151.196 161.252C150.664 161.225 150.131 161.308 149.632 161.496L119.996 172.609L90.3603 161.496ZM89.8333 176.011L91.5383 170.214L118.632 180.375C119.512 180.705 120.481 180.705 121.36 180.375L148.454 170.214L150.159 176.011L119.996 188.063L89.8333 176.004V176.011Z" fill="#F8F8F8"/>
<defs>
<filter id="filter0_d_0_1" x="0" y="0" width="248" height="295" filterUnits="userSpaceOnUse" color-interpolation-filters="sRGB">
<feFlood flood-opacity="0" result="BackgroundImageFix"/>
<feColorMatrix in="SourceAlpha" type="matrix" values="0 0 0 0 0 0 0 0 0 0 0 0 0 0 0 0 0 0 127 0" result="hardAlpha"/>
<feOffset dx="4" dy="4"/>
<feGaussianBlur stdDeviation="2"/>
<feComposite in2="hardAlpha" operator="out"/>
<feColorMatrix type="matrix" values="0 0 0 0 0.2 0 0 0 0 0.2 0 0 0 0 0.2 0 0 0 0.25 0"/>
<feBlend mode="normal" in2="BackgroundImageFix" result="effect1_dropShadow_0_1"/>
<feBlend mode="normal" in="SourceGraphic" in2="effect1_dropShadow_0_1" result="shape"/>
</filter>
</defs>
</svg>
