<svg width="30" height="30" viewBox="0 0 30 30" fill="none" xmlns="http://www.w3.org/2000/svg">
<path d="M22.8571 7.85709H24.2857M6.42857 0.714233H23.5714C26.7273 0.714233 29.2857 3.27261 29.2857 6.42852V23.5714C29.2857 26.7273 26.7273 29.2857 23.5714 29.2857H6.42857C3.27266 29.2857 0.714286 26.7273 0.714286 23.5714V6.42852C0.714286 3.27261 3.27266 0.714233 6.42857 0.714233ZM15 20.7142C11.8441 20.7142 9.28571 18.1559 9.28571 14.9999C9.28571 11.844 11.8441 9.28566 15 9.28566C18.1559 9.28566 20.7143 11.844 20.7143 14.9999C20.7143 18.1559 18.1559 20.7142 15 20.7142Z" stroke="#F3F3F3"/>
</svg>
