<svg width="34" height="31" viewBox="0 0 34 31" fill="none" xmlns="http://www.w3.org/2000/svg">
<path d="M10.3333 2H7L2 18.6667V22.8333" stroke="#2A348D" stroke-width="4" stroke-linecap="round" stroke-linejoin="round"/>
<path d="M23.666 2H26.9993L31.9993 18.6667V22.8333" stroke="#2A348D" stroke-width="4" stroke-linecap="round" stroke-linejoin="round"/>
<path d="M13.666 22H20.3327" stroke="#2A348D" stroke-width="4" stroke-linecap="round" stroke-linejoin="round"/>
<path d="M26.1673 28.6667C29.389 28.6667 32.0007 26.055 32.0007 22.8333C32.0007 19.6117 29.389 17 26.1673 17C22.9457 17 20.334 19.6117 20.334 22.8333C20.334 26.055 22.9457 28.6667 26.1673 28.6667Z" stroke="#2A348D" stroke-width="4" stroke-linecap="round" stroke-linejoin="round"/>
<path d="M7.83333 28.6667C11.055 28.6667 13.6667 26.055 13.6667 22.8333C13.6667 19.6117 11.055 17 7.83333 17C4.61167 17 2 19.6117 2 22.8333C2 26.055 4.61167 28.6667 7.83333 28.6667Z" stroke="#2A348D" stroke-width="4" stroke-linecap="round" stroke-linejoin="round"/>
</svg>
