<svg width="240" height="298" viewBox="0 0 240 298" fill="none" xmlns="http://www.w3.org/2000/svg">
<g filter="url(#filter0_d_0_1)">
<mask id="mask0_0_1" style="mask-type:alpha" maskUnits="userSpaceOnUse" x="0" y="0" width="240" height="294">
<rect width="240" height="294" fill="#2A348D"/>
</mask>
<g mask="url(#mask0_0_1)">
<rect x="17" y="12" width="208" height="359" rx="29" fill="#2A348D"/>
<rect x="22" y="17" width="198" height="359" rx="28" fill="#333333"/>
<rect x="103" y="33" width="38" height="10" rx="5" fill="black"/>
<rect x="148" y="34" width="10" height="9" rx="4.5" fill="black"/>
<rect x="32" y="57" width="179" height="323" rx="1" fill="white"/>
</g>
<path d="M67 259L179 94" stroke="black" stroke-width="2"/>
</g>
<path d="M98.9492 127.34C98.9219 122.634 101.034 119.087 105.3 116.472C102.914 113.022 99.3047 111.125 94.5469 110.759C90.042 110.4 85.1133 113.409 83.3086 113.409C81.4014 113.409 77.04 110.883 73.6084 110.883C66.5264 110.994 59 116.583 59 127.954C59 131.315 59.6084 134.785 60.8252 138.36C62.4521 143.066 68.3174 154.596 74.4355 154.409C77.6348 154.333 79.8975 152.119 84.0605 152.119C88.1006 152.119 90.1924 154.409 93.7607 154.409C99.9336 154.32 105.238 143.838 106.783 139.119C98.5049 135.179 98.9492 127.582 98.9492 127.34V127.34ZM91.7646 106.295C95.2305 102.141 94.916 98.3593 94.8135 97C91.751 97.1794 88.21 99.1046 86.1934 101.471C83.9717 104.011 82.666 107.15 82.9463 110.69C86.2549 110.945 89.2764 109.227 91.7646 106.295V106.295Z" fill="#2A348D"/>
<path d="M138.954 236.847C138.954 238.693 140.447 240.199 142.283 240.199H146.089V249.693C146.089 252.098 148.003 254.062 150.355 254.062C152.715 254.062 154.622 252.106 154.622 249.693V240.191H161.265V249.685C161.265 252.09 163.179 254.054 165.531 254.054C167.891 254.054 169.798 252.098 169.798 249.685V240.191H173.604C175.44 240.191 176.933 238.685 176.933 236.839V205.676H138.954V236.847V236.847ZM166.86 189.526L170.368 184.401C170.572 184.101 170.525 183.699 170.251 183.502C169.978 183.312 169.587 183.407 169.384 183.707L165.742 189.037C163.343 188.083 160.671 187.555 157.865 187.555C155.06 187.555 152.387 188.083 149.988 189.037L146.347 183.714C146.143 183.415 145.753 183.312 145.479 183.509C145.206 183.699 145.159 184.093 145.362 184.408L148.871 189.534C143.291 192.152 139.384 197.112 138.884 202.908H176.862C176.347 197.104 172.432 192.144 166.86 189.526V189.526ZM149.848 197.609C149.432 197.609 149.025 197.484 148.68 197.251C148.334 197.018 148.065 196.687 147.905 196.299C147.746 195.912 147.705 195.485 147.786 195.074C147.867 194.662 148.067 194.284 148.361 193.988C148.655 193.691 149.03 193.489 149.437 193.407C149.845 193.325 150.268 193.367 150.652 193.528C151.036 193.688 151.364 193.96 151.595 194.309C151.826 194.658 151.95 195.068 151.95 195.488C151.948 196.05 151.726 196.588 151.332 196.986C150.938 197.383 150.405 197.607 149.848 197.609V197.609ZM166.133 197.609C165.717 197.609 165.311 197.484 164.965 197.251C164.619 197.018 164.35 196.687 164.191 196.299C164.032 195.912 163.99 195.485 164.071 195.074C164.152 194.662 164.353 194.284 164.647 193.988C164.941 193.691 165.315 193.489 165.723 193.407C166.131 193.325 166.553 193.367 166.937 193.528C167.322 193.688 167.65 193.96 167.881 194.309C168.112 194.658 168.235 195.068 168.235 195.488C168.234 196.05 168.012 196.588 167.618 196.986C167.224 197.383 166.69 197.607 166.133 197.609ZM183.591 205.55C181.231 205.55 179.324 207.505 179.324 209.918V226.983C179.324 229.388 181.238 231.351 183.591 231.351C185.951 231.351 187.857 229.396 187.857 226.983V209.91C187.865 207.497 185.958 205.55 183.591 205.55ZM132.124 205.55C129.764 205.55 127.857 207.505 127.857 209.918V226.983C127.857 229.388 129.772 231.351 132.124 231.351C134.484 231.351 136.391 229.396 136.391 226.983V209.91C136.391 207.497 134.476 205.55 132.124 205.55Z" fill="#2A348D"/>
<defs>
<filter id="filter0_d_0_1" x="17" y="8" width="216" height="290" filterUnits="userSpaceOnUse" color-interpolation-filters="sRGB">
<feFlood flood-opacity="0" result="BackgroundImageFix"/>
<feColorMatrix in="SourceAlpha" type="matrix" values="0 0 0 0 0 0 0 0 0 0 0 0 0 0 0 0 0 0 127 0" result="hardAlpha"/>
<feOffset dx="4"/>
<feGaussianBlur stdDeviation="2"/>
<feComposite in2="hardAlpha" operator="out"/>
<feColorMatrix type="matrix" values="0 0 0 0 0 0 0 0 0 0 0 0 0 0 0 0 0 0 0.25 0"/>
<feBlend mode="normal" in2="BackgroundImageFix" result="effect1_dropShadow_0_1"/>
<feBlend mode="normal" in="SourceGraphic" in2="effect1_dropShadow_0_1" result="shape"/>
</filter>
</defs>
</svg>
