<svg width="260" height="211" viewBox="0 0 260 211" fill="none" xmlns="http://www.w3.org/2000/svg">
<rect width="162.636" height="97.2627" rx="10" fill="white"/>
<rect x="15.9448" y="9.56689" width="130.747" height="10.7832" rx="5.39161" fill="#2A348D"/>
<rect x="15.9448" y="28.1867" width="113.772" height="4.78035" rx="2.39018" fill="#2A348D"/>
<rect x="15.9448" y="45.3959" width="76.4856" height="4.78035" rx="2.39018" fill="#2A348D"/>
<rect x="15.9448" y="53.0446" width="86.0463" height="4.78035" rx="2.39018" fill="#2A348D"/>
<rect x="15.9448" y="60.6931" width="40.155" height="4.78035" rx="2.39018" fill="#2A348D"/>
<rect x="15.9448" y="68.3417" width="19.1214" height="4.78035" rx="2.39018" fill="#2A348D"/>
<rect x="15.9448" y="75.9902" width="33.4625" height="4.78035" rx="2.39018" fill="#2A348D"/>
<rect x="15.9448" y="83.6389" width="38.2428" height="4.78035" rx="2.39018" fill="#2A348D"/>
<rect x="15.9448" y="36.7913" width="47.8035" height="4.78035" rx="2.39018" fill="#2A348D"/>
<rect x="87.318" y="45.5253" width="172.203" height="125.963" rx="10" fill="#2A348D"/>
<rect x="96.0875" y="59.8756" width="154.664" height="12.7558" rx="6.37788" fill="white"/>
<rect x="96.0875" y="81.9014" width="134.584" height="5.65481" rx="2.8274" fill="white"/>
<rect x="96.0875" y="102.259" width="90.4769" height="5.65481" rx="2.8274" fill="white"/>
<rect x="96.0875" y="111.306" width="101.787" height="5.65481" rx="2.8274" fill="white"/>
<rect x="96.0875" y="120.354" width="47.5004" height="5.65481" rx="2.8274" fill="white"/>
<rect x="96.0875" y="129.402" width="22.6192" height="5.65481" rx="2.8274" fill="white"/>
<rect x="96.0875" y="138.45" width="39.5836" height="5.65481" rx="2.8274" fill="white"/>
<rect x="96.0875" y="147.497" width="45.2385" height="5.65481" rx="2.8274" fill="white"/>
<rect x="96.0875" y="92.0801" width="56.5481" height="5.65481" rx="2.8274" fill="white"/>
<rect x="58.0229" y="112.143" width="143.502" height="98.8571" rx="10" fill="#555FB4"/>
<rect x="74.7649" y="127.29" width="109.221" height="12.7558" rx="6.37788" fill="white"/>
<rect x="74.765" y="145.627" width="94.871" height="3.98618" rx="1.99309" fill="white"/>
<rect x="74.765" y="159.977" width="63.7788" height="3.98618" rx="1.99309" fill="white"/>
<rect x="74.765" y="166.355" width="71.7512" height="3.98618" rx="1.99309" fill="white"/>
<rect x="74.765" y="172.733" width="33.4839" height="3.98618" rx="1.99309" fill="white"/>
<rect x="74.765" y="179.111" width="15.9447" height="3.98618" rx="1.99309" fill="white"/>
<rect x="74.765" y="185.488" width="27.9032" height="3.98618" rx="1.99309" fill="white"/>
<rect x="74.765" y="191.866" width="31.8894" height="3.98618" rx="1.99309" fill="white"/>
<rect x="74.765" y="152.802" width="39.8618" height="3.98618" rx="1.99309" fill="white"/>
</svg>
