<svg width="30" height="30" viewBox="0 0 30 30" fill="none" xmlns="http://www.w3.org/2000/svg">
<path d="M3.57102 23.5722L4.01823 23.7958L4.15655 23.5192L3.97078 23.2719L3.57102 23.5722ZM6.42775 26.4289L6.72807 26.0292L6.48078 25.8434L6.20414 25.9817L6.42775 26.4289ZM0.714285 29.2857L0.267071 29.0621C0.170824 29.2546 0.208551 29.487 0.360732 29.6392C0.512912 29.7914 0.745397 29.8291 0.937892 29.7329L0.714285 29.2857ZM9.28571 9.28568L8.98571 8.88568C8.85981 8.98011 8.78571 9.1283 8.78571 9.28568H9.28571ZM20.7143 20.7143V21.2143C20.8618 21.2143 21.0017 21.1491 21.0967 21.0363L20.7143 20.7143ZM10.1735 8.61983L9.87351 8.21983L10.1735 8.61983ZM12.4482 9.5855L11.9521 9.64752L12.4482 9.5855ZM12.7705 12.1638L13.2666 12.1018L12.7705 12.1638ZM12.3631 13.3512L12.0095 12.9976L12.3631 13.3512ZM21.3476 19.9622L20.9651 19.6402H20.9651L21.3476 19.9622ZM20.4617 17.6285L20.5341 17.1338L20.4617 17.6285ZM17.8526 17.2467L17.925 16.752L17.8526 17.2467ZM16.6356 17.6501L16.9892 18.0036L16.6356 17.6501ZM0.214302 14.9999C0.214302 18.3283 1.31467 21.4012 3.17126 23.8725L3.97078 23.2719C2.23983 20.9678 1.2143 18.1043 1.2143 14.9999H0.214302ZM15 0.214233C6.83409 0.214233 0.214302 6.83402 0.214302 14.9999H1.2143C1.2143 7.38631 7.38638 1.21423 15 1.21423V0.214233ZM29.7857 14.9999C29.7857 6.83402 23.1659 0.214233 15 0.214233V1.21423C22.6137 1.21423 28.7857 7.38631 28.7857 14.9999H29.7857ZM15 29.7857C23.1659 29.7857 29.7857 23.1659 29.7857 14.9999H28.7857C28.7857 22.6136 22.6137 28.7857 15 28.7857V29.7857ZM6.12743 26.8287C8.5988 28.6853 11.6716 29.7857 15 29.7857V28.7857C11.8956 28.7857 9.0322 27.7601 6.72807 26.0292L6.12743 26.8287ZM0.937892 29.7329L6.65136 26.8762L6.20414 25.9817L0.490678 28.8385L0.937892 29.7329ZM3.1238 23.3486L0.267071 29.0621L1.1615 29.5093L4.01823 23.7958L3.1238 23.3486ZM8.78571 9.28568V10.7143H9.78571V9.28568H8.78571ZM19.2857 21.2143H20.7143V20.2143H19.2857V21.2143ZM8.78571 10.7143C8.78571 16.5132 13.4867 21.2143 19.2857 21.2143V20.2143C14.039 20.2143 9.78571 15.961 9.78571 10.7143H8.78571ZM9.58571 9.68568L10.4735 9.01983L9.87351 8.21983L8.98571 8.88568L9.58571 9.68568ZM11.9521 9.64752L12.2743 12.2258L13.2666 12.1018L12.9443 9.52348L11.9521 9.64752ZM12.0095 12.9976L10.3607 14.6464L11.0678 15.3535L12.7166 13.7047L12.0095 12.9976ZM12.2743 12.2258C12.3099 12.5102 12.2122 12.795 12.0095 12.9976L12.7166 13.7047C13.1375 13.2839 13.3404 12.6923 13.2666 12.1018L12.2743 12.2258ZM10.4735 9.01983C11.0439 8.59205 11.8636 8.94004 11.9521 9.64752L12.9443 9.52348C12.7607 8.05412 11.0582 7.33135 9.87351 8.21983L10.4735 9.01983ZM21.0967 21.0363L21.73 20.2843L20.9651 19.6402L20.3318 20.3922L21.0967 21.0363ZM20.5341 17.1338L17.925 16.752L17.7802 17.7414L20.3893 18.1232L20.5341 17.1338ZM16.2821 17.2965L14.6464 18.9321L15.3536 19.6392L16.9892 18.0036L16.2821 17.2965ZM17.925 16.752C17.3221 16.6637 16.7129 16.8656 16.2821 17.2965L16.9892 18.0036C17.1966 17.7962 17.4899 17.6989 17.7802 17.7414L17.925 16.752ZM21.73 20.2843C22.7035 19.1283 22.0295 17.3526 20.5341 17.1338L20.3893 18.1232C21.1093 18.2286 21.4338 19.0836 20.9651 19.6402L21.73 20.2843Z" fill="#F3F3F3"/>
</svg>
